PathFileType	4	(X/Y/Z)	C:\Users\WrightLab\Desktop\Jo\P3_36.trc
DataRate	CameraRate	NumFrames	NumMarkers	Units	OrigDataRate	OrigDataStartFrame	OrigNumFrames
100.00	100.00	       14	19	mm	100.00	147	       584
Frame#	Time	Headset_Front			Headset_Back			Headset_Left			Headset_Right			Left_Shoulder			Right_Shoulder			Sternum			C7			Left Elbow			Right Elbow			Left Wrist			Right Wrist			Left ASIS			Right ASIS			S2			Left Knee			Right Knee			Left Ankle			Right Ankle			
		X1	Y1	Z1	X2	Y2	Z2	X3	Y3	Z3	X4	Y4	Z4	X5	Y5	Z5	X6	Y6	Z6	X7	Y7	Z7	X8	Y8	Z8	X9	Y9	Z9	X10	Y10	Z10	X11	Y11	Z11	X12	Y12	Z12	X13	Y13	Z13	X14	Y14	Z14	X15	Y15	Z15	X16	Y16	Z16	X17	Y17	Z17	X18	Y18	Z18	X19	Y19	Z19	

147	1.460				10.19705	1661.49951	1492.86047	-126.55406	1576.60999	1457.28149				-177.01006	1374.29065	1521.42151	178.94687	1377.22974	1540.03845	-2.31141	1256.57410	1406.45593	-0.83403	1429.29260	1582.05847	-328.17456	1091.37939	1446.77979	277.56250	1040.07275	1577.01257	-398.56580	979.68652	1287.38098	294.89111	868.40393	1426.83484	-104.16067	886.90375	1432.03796				11.31206	974.87622	1644.47205	-118.25056	464.60977	1443.94995	150.37868	483.50443	1439.57837	-96.45366	287.63409	1725.51343	138.26834	147.04300	1482.60669	
148	1.470	-80.94588	1452.27039	1289.12939	11.02325	1662.40088	1483.86877	-125.19849	1577.11316	1447.88965				-176.40176	1375.00562	1514.24585	179.89909	1377.96619	1530.32825	-2.65526	1257.31592	1397.91223	0.20034	1430.34399	1573.05322	-327.82086	1091.78540	1441.59399	280.11282	1040.96704	1565.43640	-398.86536	979.25812	1282.86243	296.65045	870.53717	1414.73157	-103.09393	888.43628	1423.56531				12.38987	975.86005	1634.84656	-116.94926	467.21680	1425.32117	151.61858	483.18469	1436.89038	-93.14656	286.88751	1704.18359	138.40384	147.31798	1482.46399	
149	1.480	-82.43328	1453.10437	1279.76526	11.85739	1662.79150	1473.41260	-124.94267	1578.05933	1439.61658				-175.58081	1375.70911	1506.40894	180.75099	1378.52478	1520.55090	-2.59451	1257.08679	1389.77429	0.97326	1431.31421	1564.53442	-326.89584	1091.35181	1436.50598	281.44370	1041.16736	1554.47778	-399.01517	979.11938	1278.97278	298.07858	871.97736	1402.36792	-102.95124	889.79639	1415.75427				12.28033	976.74573	1626.57178	-115.61044	470.00101	1407.15295	151.27921	482.89597	1434.00635	-90.60116	285.47824	1683.11633	138.47253	147.17436	1482.07288	
150	1.490	-82.09494	1452.19409	1272.57043	12.62338	1663.86328	1464.57202	-124.52960	1578.93469	1430.71228				-175.18358	1376.51672	1499.27209	181.69252	1379.28735	1510.76868	-2.42821	1257.81079	1381.55542	2.66925	1432.02319	1556.72241	-327.00876	1091.59094	1431.61060	283.68985	1042.81726	1542.57117	-398.96313	978.03143	1274.70508	299.29437	873.72784	1389.72217	-102.38304	890.73932	1409.01758	147.54068	910.78284	1408.45435	12.70397	978.41339	1620.45679	-114.18320	473.13452	1389.29675	152.62901	483.09454	1431.89063	-88.46293	283.25998	1661.71631	138.70032	147.79663	1481.92651	
151	1.500	-82.94305	1452.42090	1263.90186	13.14140	1664.66882	1455.51648	-123.93044	1579.46777	1422.97644				-174.30695	1377.00281	1492.05469	182.07376	1379.89331	1501.33118	-2.88103	1258.13306	1373.08044	3.48255	1432.85706	1547.49744	-326.77808	1091.65283	1426.82874	285.31763	1043.13977	1531.42297	-399.22031	977.32843	1270.70728	299.83832	875.75543	1376.99597	-102.64982	892.41064	1402.19141				13.31712	979.76550	1611.96655	-112.65005	476.22763	1371.67151	152.12206	482.95657	1429.93713	-85.69913	280.27219	1639.92310	138.82175	147.98618	1481.82117	
152	1.510	-83.53679	1453.36243	1255.86914	13.55712	1664.38232	1445.55383	-123.81570	1580.06299	1413.62512	51.14978	1516.92139	1282.37073	-173.79268	1377.39221	1484.40894	182.84349	1380.49866	1492.42261	-3.20501	1258.20837	1365.25513	4.14246	1433.45264	1539.17700	-326.18915	1091.89319	1421.89050	287.28818	1044.16174	1520.02466	-399.38620	976.75482	1267.00354	300.77176	877.45697	1364.38574	-99.79122	894.33374	1391.23389				13.07362	980.42712	1604.59607	-111.15705	479.06482	1354.43164	152.52936	483.08249	1426.72974	-83.14947	276.36591	1617.50146	138.83737	148.05035	1481.83545	
153	1.520	-83.78593	1452.42529	1248.13586	14.12401	1664.80554	1437.00818	-123.28165	1580.15979	1405.70642				-173.42273	1377.92114	1477.22778	183.49182	1380.88074	1482.71692	-3.26898	1259.01135	1357.08765	5.32193	1433.77991	1530.72205	-325.89691	1091.42102	1417.41956	289.09616	1045.07678	1509.27686	-399.76321	975.38214	1262.79846	301.51190	879.05579	1352.48242	-98.64156	895.10120	1384.33179				13.90604	981.02527	1595.96765	-109.66547	481.92407	1337.74731	152.90228	482.44067	1424.88599	-81.04562	271.06204	1596.46155	138.70244	148.79996	1481.01343	
154	1.530	-84.15547	1452.22925	1240.53503	14.93738	1665.18970	1427.26917	-123.46777	1580.58801	1398.19031				-173.01703	1378.21558	1470.06641	183.65369	1381.16321	1473.60193	-3.12264	1258.98169	1349.46667	6.06438	1433.98364	1521.74597	-325.86630	1091.34082	1412.97717	289.16745	1044.65601	1497.98865	-400.52499	974.21497	1260.84912	302.72916	880.62262	1340.22058	-98.89469	896.38336	1377.20557				13.75101	980.88245	1588.41931	-108.45038	484.65857	1321.18616	153.35277	482.48615	1421.50745	-79.00712	265.57477	1573.23816	138.76747	148.61227	1480.97437	
155	1.540	-85.17077	1451.42310	1231.85901	14.95764	1665.02783	1417.90356	-122.95635	1580.00195	1387.64832	50.80916	1515.56567	1253.89465	-172.41663	1378.36145	1462.90857	183.97559	1381.33154	1463.62244	-4.30667	1258.90295	1340.67432	6.74991	1434.17371	1513.65430	-325.26361	1090.45728	1408.61829	290.61679	1045.14832	1486.79150	-400.91367	972.62952	1256.98511	302.91806	882.58044	1327.33533	-99.04601	896.84589	1368.29895				14.28638	981.53162	1580.92883	-107.28830	487.44714	1305.45227	153.33392	481.83508	1420.13831	-76.59776	259.16302	1549.31995	138.71809	149.14262	1480.63049	
156	1.550	-85.64002	1451.15173	1224.00696	14.97401	1665.00232	1408.58093	-123.25861	1580.34729	1380.42358				-172.21565	1378.50977	1455.64868	184.37260	1381.57544	1454.49927	-4.34160	1259.95667	1332.95349	7.54478	1434.49890	1505.99548	-324.65567	1089.45667	1404.38098	291.68192	1045.69177	1476.11877	-400.93735	970.84283	1254.23132	303.50641	883.53894	1315.55396	-99.10847	896.90814	1360.06653				14.78001	981.09857	1573.08618	-106.38066	490.21368	1290.08203	153.87067	482.33685	1418.24634	-74.66808	252.45155	1524.76953	138.67166	149.44974	1480.47913	
157	1.560	-86.50575	1450.13318	1215.71387	14.36683	1664.88281	1400.31384	-123.46365	1579.88171	1372.56836				-171.97845	1378.37134	1448.64514	184.13713	1381.35986	1445.37500	-4.42584	1259.31104	1324.78064	7.37077	1434.30896	1496.65222	-324.28363	1088.71045	1399.99622	293.16901	1045.78882	1465.37012	-400.93988	968.06903	1250.51111	303.86356	884.40552	1303.51611	-99.28963	897.52289	1352.34070				15.12576	981.35333	1565.03137	-105.17810	491.69110	1274.47424	153.36816	481.61139	1414.82813	-72.91573	245.14992	1499.98389	138.26515	149.50542	1479.47437	
158	1.570	-86.92237	1449.38000	1208.13757	14.76727	1664.85889	1390.94714	-123.82524	1580.69788	1367.61365				-172.17693	1378.03906	1442.39294	184.22185	1381.07690	1436.23853	-5.22125	1258.91394	1316.64709	8.50052	1434.30029	1488.07129	-323.77533	1087.36389	1395.89673	293.49252	1045.62939	1454.95911	-400.94547	966.10559	1247.83362	303.88254	885.62140	1290.99939	-99.17899	897.16974	1346.24194				15.57389	981.18665	1557.43591	-104.67776	494.81262	1261.26904	153.36980	480.97507	1412.98682	-70.54531	237.12622	1474.65930	137.76968	149.25685	1479.42981	
159	1.580	-88.19095	1448.20215	1199.35413	14.41026	1663.53809	1381.75867	-123.96159	1579.77612	1359.39880	49.06614	1511.98438	1218.73022	-172.07471	1377.42175	1434.51086	184.33792	1380.72974	1426.43652	-5.71724	1258.36255	1308.58032	8.26338	1433.80542	1480.18970	-323.54401	1086.10449	1391.70471	294.39218	1045.32092	1444.11353	-401.10480	964.07233	1245.01270	303.99957	886.05939	1279.48975	-99.52552	896.99701	1337.22058				14.80814	980.78992	1549.18640	-104.80748	497.14096	1246.34656	152.75465	480.88281	1409.58752	-69.08463	229.14850	1449.04614	136.82155	149.44165	1478.83057	
160	1.590	-88.96752	1447.35168	1191.28528				-124.17493	1579.23914	1350.98523	48.52314	1513.04443	1210.57568	-172.30536	1376.65356	1428.07080	184.33270	1379.98059	1417.76794	-6.18619	1257.70776	1299.67834	8.20134	1433.23108	1471.35925	-323.41479	1084.52441	1387.71033	294.80423	1044.76074	1432.92383	-401.31915	960.75348	1241.72278	304.06006	886.50610	1268.47131	-99.63496	896.35913	1330.17236				15.49300	979.49390	1541.03271	-103.47109	497.98785	1234.52087	152.38278	479.82526	1405.87927	-67.31832	220.92329	1423.04834	136.48486	149.55420	1478.44409	
